#!OML:ASF E:\emotionWalksFemale\Project 1\Capture day 1\Session 1\Female1.ASF
:FULLY-SPECIFIED
:DEGREES
187
root 7.93541 15.5245 21.2442 -179.28 5.84849 -180.051
lowerback 5.95893 0.557152 -0.035283
upperback -6.97049 1.12983 0.592062
thorax -10.8095 0.71144 0.457605
lowerneck -6.24012 -1.56038 -5.80201
upperneck 9.65958 -1.85617 4.59121
head 4.00201 -0.837192 2.2565
rclavicle -7.7526e-015 -6.55989e-015
rhumerus 41.2279 -28.6599 -17.3944
rradius 37.5297
rwrist 10.6528
rhand -7.1622 -48.256
rfingers 7.12502
rthumb 18.7148 -77.3758
lclavicle -7.7526e-015 -6.55989e-015
lhumerus 77.7859 50.0639 60.4175
lradius 29.2884
lwrist -14.884
lhand -18.7139 -58.0579
lfingers 7.12502
lthumb 7.58127 -28.2138
rfemur 5.90615 24.3439 28.4255
rtibia 14.8471
rfoot -20.8803 -34.2918
rtoes 7.30426
lfemur 0.245108 -25.5367 -26.2547
ltibia 23.556
lfoot -24.0257 20.9003
ltoes -20.561
188
root 7.93565 15.5332 21.2186 -179.38 5.90527 -180.144
lowerback 5.82303 0.54382 -0.130691
upperback -6.69479 1.07465 0.636884
thorax -10.4201 0.682409 0.573568
lowerneck -7.09649 -1.52745 -6.01157
upperneck 10.0295 -1.76715 4.66855
head 4.2553 -0.791601 2.31719
rclavicle -1.17283e-014 1.78906e-015
rhumerus 43.73 -31.1424 -18.8068
rradius 37.3957
rwrist 10.9344
rhand -7.18831 -48.3422
rfingers 7.12502
rthumb 18.6897 -77.4644
lclavicle -1.17283e-014 1.78906e-015
lhumerus 81.2914 50.4862 62.6206
lradius 29.389
lwrist -15.1482
lhand -18.6913 -58.4756
lfingers 7.12502
lthumb 7.60314 -28.6323
rfemur 6.04574 24.3774 28.3866
rtibia 15.0727
rfoot -21.4116 -34.009
rtoes 8.4611
lfemur 0.454434 -25.545 -26.4457
ltibia 23.5223
lfoot -23.7168 21.1362
ltoes -21.8531
189
root 7.93495 15.5384 21.1952 -179.551 5.8503 -180.164
lowerback 5.87729 0.560778 -0.0843197
upperback -6.89012 1.11603 0.547813
thorax -10.6694 0.703132 0.442246
lowerneck -6.24323 -1.54026 -5.9126
upperneck 10.2145 -1.82058 4.72477
head 4.17154 -0.807634 2.32045
rclavicle -9.0447e-015 -7.35503e-015
rhumerus 45.1148 -32.444 -19.4986
rradius 37.3512
rwrist 10.717
rhand -7.59732 -48.3249
rfingers 7.12502
rthumb 18.2963 -77.4844
lclavicle -9.0447e-015 -7.35503e-015
lhumerus 83.9366 49.8517 64.3517
lradius 29.4166
lwrist -15.5567
lhand -18.6129 -58.9089
lfingers 7.12502
lthumb 7.67881 -29.0684
rfemur 6.23076 24.4077 28.4944
rtibia 15.3519
rfoot -21.4548 -34.0787
rtoes 7.71668
lfemur 0.760774 -25.4195 -26.5573
ltibia 23.456
lfoot -23.8028 20.7545
ltoes -19.9024
190
root 7.93292 15.5405 21.1746 -179.672 5.72048 -180.111
lowerback 5.88613 0.497705 0.0294822
upperback -6.60432 1.01401 0.592645
thorax -10.3524 0.634059 0.446009
lowerneck -7.59661 -1.59063 -5.97236
upperneck 10.9879 -1.82545 4.67185
head 4.63536 -0.803966 2.31123
rclavicle 6.80837e-015 -2.78299e-015
rhumerus 47.3387 -34.2529 -20.5513
rradius 37.265
rwrist 10.1957
rhand -8.65655 -48.4001
rfingers 7.12502
rthumb 17.277 -77.6521
lclavicle 6.80837e-015 -2.78299e-015
lhumerus 87.0316 50.205 65.9085
lradius 29.5056
lwrist -14.9927
lhand -18.4582 -59.1963
lfingers 7.12502
lthumb 7.82808 -29.3612
rfemur 6.28876 24.2462 28.6123
rtibia 15.6579
rfoot -20.7377 -34.2768
rtoes 4.98151
lfemur 1.03908 -25.2605 -26.5689
ltibia 23.3695
lfoot -23.9015 20.1809
ltoes -17.5481
191
root 7.92943 15.5471 21.1542 -179.677 5.61177 -180.122
lowerback 5.89217 0.461005 0.0986041
upperback -6.77029 0.988365 0.561097
thorax -10.5397 0.622361 0.374741
lowerneck -7.167 -1.57749 -5.8303
upperneck 11.1774 -1.82164 4.59209
head 4.61911 -0.797009 2.2666
rclavicle -1.28216e-014 -1.19271e-014
rhumerus 48.4508 -35.1809 -20.6315
rradius 37.5067
rwrist 8.98852
rhand -9.79117 -48.861
rfingers 7.12502
rthumb 16.1847 -78.2053
lclavicle -1.28216e-014 -1.19271e-014
lhumerus 89.1716 49.954 66.9817
lradius 29.64
lwrist -14.776
lhand -18.6784 -59.7773
lfingers 7.12502
lthumb 7.61554 -29.9344
rfemur 6.21607 23.8963 28.5315
rtibia 15.9346
rfoot -20.4416 -34.0589
rtoes 4.08345
lfemur 1.15818 -25.2796 -26.6228
ltibia 23.3048
lfoot -23.7822 19.9899
ltoes -16.7835
192
root 7.92608 15.5536 21.1305 -179.763 5.51077 -180.17
lowerback 5.97788 0.38663 0.108879
upperback -7.01106 0.921838 0.60537
thorax -10.8623 0.602234 0.421873
lowerneck -6.42388 -1.47643 -6.16786
upperneck 11.3022 -1.6965 4.9028
head 4.53071 -0.727307 2.43065
rclavicle 1.95306e-014 1.78906e-015
rhumerus 49.8156 -35.8803 -20.9099
rradius 37.6317
rwrist 8.08091
rhand -10.6381 -49.0969
rfingers 7.12502
rthumb 15.3691 -78.5056
lclavicle 1.95306e-014 1.78906e-015
lhumerus 90.8578 49.6312 67.9273
lradius 29.7732
lwrist -14.8502
lhand -19.209 -60.3635
lfingers 7.12502
lthumb 7.10341 -30.5027
rfemur 6.30681 23.6452 28.4722
rtibia 16.143
rfoot -20.7234 -33.7429
rtoes 4.81983
lfemur 1.34895 -25.3513 -26.7662
ltibia 23.2819
lfoot -23.5622 19.9174
ltoes -16.7041
193
root 7.92512 15.5583 21.1083 -179.953 5.39225 -180.201
lowerback 6.33212 0.423976 0.197281
upperback -6.99778 0.966059 0.512864
thorax -11.0596 0.60742 0.262535
lowerneck -7.05791 -1.54842 -6.16104
upperneck 11.8806 -1.78793 5.11153
head 4.82162 -0.747961 2.49075
rclavicle 2.21645e-014 -1.98785e-015
rhumerus 51.4708 -37.2317 -21.7562
rradius 37.5195
rwrist 7.83433
rhand -11.2789 -49.1047
rfingers 7.12502
rthumb 14.7518 -78.5598
lclavicle 2.21645e-014 -1.98785e-015
lhumerus 94.0739 48.8744 70.2146
lradius 29.6696
lwrist -15.421
lhand -19.7027 -60.9087
lfingers 7.12502
lthumb 6.62679 -31.0324
rfemur 6.56892 23.5404 28.528
rtibia 16.2737
rfoot -20.9107 -33.5683
rtoes 5.25246
lfemur 1.6212 -25.2937 -26.9081
ltibia 23.2969
lfoot -23.2655 19.8018
ltoes -16.8829
194
root 7.92614 15.5656 21.0914 -180.126 5.28702 -180.199
lowerback 6.15974 0.45568 0.166843
upperback -6.79094 0.986617 0.543417
thorax -10.7232 0.613976 0.314373
lowerneck -6.89178 -1.60733 -6.1271
upperneck 11.7425 -1.86906 5.02988
head 4.75499 -0.793939 2.45415
rclavicle 1.04362e-015 -7.15625e-015
rhumerus 53.8533 -38.7264 -23.3957
rradius 37.3252
rwrist 8.28181
rhand -11.5414 -49.0635
rfingers 7.12502
rthumb 14.4989 -78.5369
lclavicle 1.04362e-015 -7.15625e-015
lhumerus 97.6 48.2157 72.7863
lradius 29.4325
lwrist -15.9332
lhand -19.9613 -61.5735
lfingers 7.12502
lthumb 6.37716 -31.6895
rfemur 6.83808 23.5198 28.6315
rtibia 16.3364
rfoot -20.9404 -33.4081
rtoes 5.71824
lfemur 1.84621 -25.2271 -26.9957
ltibia 23.3581
lfoot -22.9486 19.6937
ltoes -16.6552
195
root 7.92733 15.5742 21.0749 -180.233 5.1325 -180.178
lowerback 6.67384 0.399607 0.202708
upperback -7.12103 0.947432 0.535327
thorax -11.4077 0.601655 0.280868
lowerneck -6.38143 -1.65192 -6.13547
upperneck 12.0709 -1.9213 4.96244
head 4.77252 -0.815552 2.43626
rclavicle -7.55382e-015 -2.5842e-015
rhumerus 55.5897 -39.3472 -24.5719
rradius 37.2423
rwrist 8.62871
rhand -11.3907 -48.8632
rfingers 7.12502
rthumb 14.6441 -78.3261
lclavicle -7.55382e-015 -2.5842e-015
lhumerus 99.255 47.3527 73.9306
lradius 29.486
lwrist -16.0097
lhand -20.2903 -62.0505
lfingers 7.12502
lthumb 6.05954 -32.1572
rfemur 7.02969 23.5605 28.7541
rtibia 16.3678
rfoot -20.8908 -33.4893
rtoes 5.93632
lfemur 1.93947 -25.1262 -26.9869
ltibia 23.4647
lfoot -22.7169 19.3623
ltoes -15.9154
